<?xml version="1.0" standalone="no"?>
<!DOCTYPE svg PUBLIC "-//W3C//DTD SVG 1.1//EN" "http://www.w3.org/Graphics/SVG/1.1/DTD/svg11.dtd" >
<!--
2013-9-30: Created.
-->
<svg>
<metadata>
Created by iconfont
</metadata>
<defs>

<font id="iconfont" horiz-adv-x="1024" >
  <font-face
    font-family="iconfont"
    font-weight="500"
    font-stretch="normal"
    units-per-em="1024"
    ascent="896"
    descent="-128"
  />
    <missing-glyph />
    
    <glyph glyph-name="x" unicode="x" horiz-adv-x="1001"
d="M281 543q-27 -1 -53 -1h-83q-18 0 -36.5 -6t-32.5 -18.5t-23 -32t-9 -45.5v-76h912v41q0 16 -0.5 30t-0.5 18q0 13 -5 29t-17 29.5t-31.5 22.5t-49.5 9h-133v-97h-438v97zM955 310v-52q0 -23 0.5 -52t0.5 -58t-10.5 -47.5t-26 -30t-33 -16t-31.5 -4.5q-14 -1 -29.5 -0.5
t-29.5 0.5h-32l-45 128h-439l-44 -128h-29h-34q-20 0 -45 1q-25 0 -41 9.5t-25.5 23t-13.5 29.5t-4 30v167h911zM163 247q-12 0 -21 -8.5t-9 -21.5t9 -21.5t21 -8.5q13 0 22 8.5t9 21.5t-9 21.5t-22 8.5zM316 123q-8 -26 -14 -48q-5 -19 -10.5 -37t-7.5 -25t-3 -15t1 -14.5
t9.5 -10.5t21.5 -4h37h67h81h80h64h36q23 0 34 12t2 38q-5 13 -9.5 30.5t-9.5 34.5q-5 19 -11 39h-368zM336 498v228q0 11 2.5 23t10 21.5t20.5 15.5t34 6h188q31 0 51.5 -14.5t20.5 -52.5v-227h-327z" />
    

    
    <glyph glyph-name="xing" unicode="&#58881;" d="M516.7404 632.5965c44.5497-77.9312 97.8827-173.1206 98.5143-174.2449 11.011-19.6577 30.1588-33.4253 52.2917-37.6035 0 0 94.4849-17.762 177.0844-33.0346-59.0335-66.6428-129.6555-143.4497-130.527-144.3971-15.3582-16.7017-22.4697-39.3673-19.3867-61.8511 0.1479-1.0743 12.0144-87.9893 21.6712-167.0068-63.1928 30.5983-134.3186 65.3437-161.3554 78.5537l-4.5881 2.2465c-10.5283 5.1295-21.951 7.7108-33.3698 7.7108-11.1619 0-22.3218-2.4533-32.6632-7.374l-1.4491-0.6905c-22.9914-10.9406-100.633-47.8765-168.3759-80.0557 9.8437 79.3902 21.8401 166.2083 21.989 167.2676 3.139 22.6876-4.0854 45.5941-19.7045 62.3347-0.8904 0.9474-71.9033 77.1977-131.5313 143.5986 83.6028 15.2736 179.294 33.0346 179.294 33.0346 22.061 4.0852 41.2078 17.723 52.2748 37.2497C417.5584 459.4549 471.6131 554.7313 516.7404 632.5965M517.0372 754.224c-7.6142 0-22.8774-5.879-42.7848-43.4375-47.8905-81.6367-123.4895-214.8863-123.4895-214.8863s-138.2751-25.6586-227.4643-41.7847c-43.7342-6.8743-58.0131-44.1261-35.8232-70.3233 62.7671-72.1411 173.7615-191.2353 173.7615-191.2353s-18.1255-130.8333-28.319-220.1447c-3.3249-34.2957 15.5981-53.9354 41.9843-53.9354 8.6165 0 18.0345 2.0996 27.7254 6.4646 74.8404 35.5039 188.672 89.6632 214.4476 101.9239 25.3289-12.3706 138.0482-67.4763 212.0891-103.0561 9.5809-4.384 18.902-6.4846 27.4276-6.4846 26.0724 0 44.7725 19.6557 41.4856 54.0094-10.0856 89.4414-28.0052 220.4415-28.0052 220.4415S879.7855 311.0385 941.828 383.2925c21.9301 26.2162 7.818 63.5209-35.4125 70.4143-88.1549 16.1451-224.811 41.8396-224.811 41.8396S606.879 628.982 559.5611 710.7305c-16.7294 30.1725-29.5252 39.871-37.6401 42.5262C521.1605 753.6135 519.4886 754.224 517.0372 754.224L517.0372 754.224z"  horiz-adv-x="1000" />

    
    <glyph glyph-name="dianzibingli" unicode="&#58921;" d="M240.639597 510.932939l128.911504 0 0 128.922297 56.462411 0 0-128.922297 128.911504 0 0-56.462411-128.911504 0 0-128.900077-56.462411 0 0 128.900077-128.911504 0 0 56.462411zm-88.939403 292.092247l510.301845 0 31.043118 0 0-31.043118 0-217.134161 269.563302 0 31.043118 0 0-31.043118 0-611.676067c0-33.563792-13.71233-64.069128-35.781961-86.139076l-0.134434 0c-22.080868-22.080868-52.541446-35.781961-86.015281-35.781961l-720.02222 0c-33.485325 0-63.93454 13.701093-86.015281 35.781961l-0.134434 0c-22.069631 22.069631-35.781961 52.57503-35.781961 86.139076l0 768.975554c0 33.552555 13.71233 64.069128 35.781961 86.139076l0.134434 0c22.080868 22.080868 52.53021 35.781961 86.015281 35.781961zm470.475124-94.832086l-443.947254 0c-15.258318 0-29.138629-6.228793-39.187617-16.255351l0.056014-0.044811c-10.048988-10.060161-16.300171-23.918125-16.300171-39.120386l0-712.308784c0-15.213498 6.251197-29.071399 16.300171-39.120386l-0.056014-0.056014c10.048988-10.01534 23.929299-16.244178 39.187617-16.244178l666.961402 0c15.258318 0 29.138629 6.228793 39.187617 16.244178l-0.056014 0.056014c10.048988 10.048988 16.300171 23.906889 16.300171 39.120386l0 537.849285-249.70073 0-28.746546 0 0 28.746546 0 201.135924zm125.808354 101.59896l246.250316-203.298226-246.250316 0 0 203.298226zm-513.695757-709.121834l554.855029 0 0-67.900452-554.855029 0 0 67.900452zm0 176.545619l554.855029 0 0-67.900452-554.855029 0 0 67.900452z"  horiz-adv-x="1024" />

    
    <glyph glyph-name="dianzibingli1" unicode="&#58907;" d="M613.48024 386.125349c0-15.12495-10.986028-27.388423-24.475848-27.388423L273.628743 358.736926c-13.540918 0-24.526946 12.263473-24.526946 27.388423l0 10.986028c0 15.12495 10.986028 27.362874 24.526946 27.362874l315.3501 0c13.48982 0 24.475848-12.237924 24.475848-27.362874L613.454691 386.125349zM736.830339 119.088224c0-15.227146-14.690619-27.413972-32.80479-27.413972L281.932136 91.674251c-18.088623 0-32.830339 12.212375-32.830339 27.413972l0 10.93493c0 15.176048 14.716168 27.413972 32.830339 27.413972l422.093413 0c18.114172 0 32.80479-12.237924 32.80479-27.413972L736.830339 119.088224 736.830339 119.088224zM768.587625 570.537325c-12.059082 0-21.946507 9.836327-21.946507 21.946507L746.641118 666.192415 672.958084 666.192415c-12.084631 0-21.946507 9.810778-21.946507 21.895409L651.011577 690.847106c0 12.084631 9.887425 21.920958 21.946507 21.920958l73.683034 0L746.641118 786.476647c0 12.084631 9.912974 21.920958 21.946507 21.920958l2.733733 0c12.11018 0 21.920958-9.836327 21.920958-21.920958l0-73.708583 73.708583 0c12.084631 0 21.895409-9.861876 21.895409-21.920958l0-2.733733c0-12.11018-9.836327-21.895409-21.895409-21.895409l-73.708583 0 0-73.734132c0-12.11018-9.836327-21.946507-21.920958-21.946507L768.587625 570.537325zM177.130539-212c-23.249501 0-42.257884 26.315369-42.36008 58.660279l0 2.09501L134.770459 748.127745c0 32.472655 19.008383 58.915768 42.36008 58.915768l318.543713 0c12.135729 0 21.972056-9.836327 21.972056-21.920958l0-9.708583c0-12.084631-9.836327-21.895409-21.972056-21.895409L439.952096 753.518563c-0.740918 0-1.481836 0.025549-2.248303 0.102196L437.397206 753.620758 188.167665 753.620758l0-912.146906 645.671856 0L833.839521 492.306587c0 12.11018 10.194012 21.920958 22.712974 21.920958l9.989621 0c12.493413 0 22.687425-9.810778 22.687425-21.920958l0-658.676248-0.945309 0-0.945309-4.266667c-5.518563-24.322555-22.150898-41.363673-40.443912-41.363673L177.130539-212 177.130539-212z"  horiz-adv-x="1024" />

    
    <glyph glyph-name="dianzibinglipress" unicode="&#58920;" d="M891.047039 495.956933 891.047039 784.450151c0 15.220204-12.329645 27.549849-27.524269 27.549849L495.603108 812 203.017062 812 175.492793 812c-23.457021 0-42.565412-26.552222-42.565412-59.166946L132.927381-150.965702l0-2.097574c0.102321-32.512403 19.185132-58.936724 42.539832-58.936724l673.091154 0c18.366566 0 35.096001 17.087557 40.595738 41.567785l0.997627 4.246309 0.946466 0L891.098199 495.726712C891.098199 495.803452 891.047039 495.880193 891.047039 495.956933zM247.807949 131.669656c0 15.271365 14.759761 27.549849 32.998426 27.549849l424.144888 0c18.213085 0 32.972846-12.278484 32.972846-27.549849l0-10.999475c0-15.220204-14.759761-27.549849-32.972846-27.549849L280.806375 93.120332c-18.238665 0-32.998426 12.329645-32.998426 27.549849L247.807949 131.669656zM629.668807 673.201968c0 12.150583 9.899528 22.024531 22.024531 22.024531l74.080188 0L725.773526 769.306687c0 12.150583 9.899528 22.024531 21.998951 22.024531l2.737079 0c12.176163 0 22.050111-9.873948 22.050111-22.024531L772.559666 695.226499l74.054608 0c12.201744 0 22.024531-9.873948 22.024531-22.024531l0-2.762659c0-12.150583-9.899528-22.050111-22.024531-22.050111l-74.054608 0 0-74.054608c0-12.150583-9.925108-22.050111-22.050111-22.050111l-2.737079 0c-12.150583 0-21.998951 9.899528-21.998951 22.050111L725.773526 648.414779l-74.080188 0c-12.201744 0-22.024531 9.899528-22.024531 22.050111L629.668807 673.201968zM613.911419 400.031276l0-10.999475c0-15.194624-11.050636-27.549849-24.633709-27.549849L272.441658 361.481951c-13.608653 0-24.633709 12.355225-24.633709 27.549849l0 10.999475c0 15.220204 11.025056 27.575429 24.633709 27.575429l316.861632 0C602.886363 427.606705 613.911419 415.27706 613.911419 400.031276z"  horiz-adv-x="1024" />

    
    <glyph glyph-name="yonghu" unicode="&#58935;" d="M395.683343 125.185532c0 0-99.260701-53.211922-195.451484-67.538209-17.547655-4.704139-141.216255-33.769105-159.635767-137.123031-2.046612 0-1.023306-84.934414-1.023306-84.934414l621.146862-1.023306c0 0 13.302981-2.046612 23.536043-18.419512l37.862329 0c0 0-15.349593 38.543851-57.305147 50.142004l-588.401064 0 0 54.235229c0 0 19.442818 74.701352 136.099724 109.493763 50.358945 10.471492 165.775604 44.684712 208.754464 78.114079l0 117.337405-104.377232 130.983193c0 0-67.538209 69.584821-2.046612 102.33062 0 0-10.429537 32.9259-25.582655 55.258535-2.046612 16.372899 4.093225 88.004333 4.093225 88.004333s21.48943 91.074252 74.701352 101.307314l0 66.514903c0 0 118.703519 23.876804 223.080751-36.839023 2.046612 0 121.773438-32.063253 129.959887-105.741299 2.046612 0 1.023306-165.434843 1.023306-165.434843s56.964386-30.358425-21.48943-109.153002c-13.32447-11.530614-70.246901-53.276391-103.353926-128.254036l0-115.6336c0 0 12.279674-32.745798 188.288341-67.538209 27.795043-7.812943 150.766772-49.801243 164.069753-119.727849 1.723248-9.054213-0.340761-59.350736-0.340761-59.350736l-177.714518-0.341784-0.340761-25.240871 204.66124 0 0 96.190783c0 0-25.582655 84.251869-178.055279 132.0065-18.942421 3.964288-145.30948 29.67588-176.008666 56.281841 0 2.046612 0 98.237395 0 98.237395s24.558325 57.988716 89.709161 114.951055c4.010337 4.843308 91.075275 84.934414 37.180807 138.828882l0 159.635767c0 0 4.77577 80.500429-124.31226 120.623241-4.093225-0.605797-53.743018 23.2444-53.743018 23.2444s-15.007809 24.644283-229.220588 24.65247l0-82.563414c0 0-68.902276-35.472909-75.724659-116.656907-2.046612-10.233062-4.093225-94.14417-4.093225-94.14417s19.442818-31.722492 19.442818-44.002167c0 0-63.785745-29.67588 19.442818-127.913275 10.915607-10.913561 83.228563-107.104343 95.167476-118.703519C395.683343 213.189865 395.683343 125.185532 395.683343 125.185532z"  horiz-adv-x="1024" />

    
    <glyph glyph-name="74133" unicode="&#58949;" d="M32.341714 379.485499l328.829756 0 51.699164 243.568081c2.626905 12.368999 13.637883 21.151565 26.347698 20.763559 12.641652-0.335573 23.238407-9.652958 25.19941-22.142553l43.058168-274.466983 26.877273 85.66541c3.130264 9.9728 11.88137 17.135179 22.273636 18.225791 10.392266 1.090611 20.443716-4.089792 25.576929-13.197444l37.730952-66.931018 368.831067 2.857611c14.749467 28.70195 25.613633 60.146158 30.977552 94.872686 14.953957 96.713092-10.040963 194.013436-66.847124 260.283795-50.325414 58.704244-121.870555 89.728986-206.896281 89.728986-131.937736 0-206.901524-88.596428-234.00426-128.561036-27.097493 39.964608-102.066525 128.561036-234.00426 128.561036-85.025725 0-156.570867-31.024742-206.896281-89.728986C14.294196 662.719318-10.700724 565.413731 4.253233 468.700639 9.271093 436.254957 19.04989 406.651155 32.341714 379.485499zM604.891607 318.42176c-9.427495 0.152056-18.356874 5.03359-23.039161 13.339014l-15.593642 27.658529-42.30313-134.826806c-3.450107-10.990005-13.627396-18.36736-25.000164-18.36736-0.650172 0-1.300344 0.020973-1.955759 0.073407-12.143536 0.901852-22.069146 10.05145-23.956743 22.079633l-38.396854 244.737342-26.594134-125.294445c-2.569228-12.112076-13.265607-20.774046-25.645093-20.774046L64.247334 327.047026c62.322137-85.004752 158.767819-142.256595 235.92856-188.004588 37.820088-22.425692 73.542848-43.608717 98.385712-63.87416 91.731935-74.832705 100.126495-112.589874 100.435851-114.162871 0.807472-6.54891 6.344421-11.72407 12.982468-11.72407 6.774373 0 12.410945 4.928724 13.024414 11.67688 0.06292 0.372276 7.183352 38.129445 100.446338 114.210061 24.842864 20.265443 60.565623 41.448468 98.385712 63.87416 75.357038 44.683598 169.123382 100.325741 231.518925 182.09012L604.891607 318.42176z"  horiz-adv-x="1025" />

    
    <glyph glyph-name="dianzibingli2" unicode="&#58989;" d="M120.627335 661.868565l0 52.385091 782.781146 0 0-52.385091L120.627335 661.868565 120.627335 661.868565zM120.627335 33.176866l0 52.385091 782.781146 0 0-52.385091L120.627335 33.176866 120.627335 33.176866zM198.902072 583.290929l0 52.385091 52.196803 0 0-52.385091L198.902072 583.290929 198.902072 583.290929zM277.17681 583.290929l0 52.385091 52.195779 0 0-52.385091L277.17681 583.290929 277.17681 583.290929zM355.450525 583.290929l0 52.385091 52.195779 0 0-52.385091L355.450525 583.290929 355.450525 583.290929zM198.902072 164.176432 198.902072 426.09984l208.744231 0 0-261.922385L198.902072 164.177456 198.902072 164.176432zM355.450525 373.714749 251.098875 373.714749l0-157.153226 104.35165 0L355.450525 373.714749 355.450525 373.714749zM459.843106 373.714749l0 52.385091 182.626387 0 0-52.385091L459.843106 373.714749 459.843106 373.714749zM94.511537 504.676453 94.511537 714.253656l834.975902 0 0-209.577203L94.511537 504.676453 94.511537 504.676453zM877.329523 661.868565 146.706293 661.868565l0-104.770182 730.623229 0L877.329523 661.868565 877.329523 661.868565zM94.511537 33.176866 94.511537 425.987277l52.194756 0 0-340.42532 730.623229 0L877.329523 451.685565l52.157917 0 0-418.508699L94.511537 33.176866 94.511537 33.176866zM459.843106 373.714749l0 52.385091 182.626387 0 0-52.385091L459.843106 373.714749 459.843106 373.714749zM459.843106 268.946614l0 52.385091 365.290637 0 0-52.385091L459.843106 268.946614 459.843106 268.946614zM459.843106 164.176432l0 52.384068 365.290637 0 0-52.384068L459.843106 164.176432 459.843106 164.176432z"  horiz-adv-x="1024" />

    
    <glyph glyph-name="dianzibingli3" unicode="&#58891;" d="M820.528865 828.763666 266.301112 828.763666c-54.450123 0-98.999758-44.549635-98.999758-98.999758l0-19.905352-49.855478 0c-13.506619 0-24.558325-11.050684-24.558325-24.558325l0-66.911946c0-13.506619 11.050684-24.558325 24.558325-24.558325l49.855478 0 0-129.400139-49.855478 0c-13.506619 0-24.558325-11.050684-24.558325-24.558325l0-66.911946c0-13.506619 11.050684-24.558325 24.558325-24.558325l49.855478 0 0-129.400139-49.855478 0c-13.506619 0-24.558325-11.050684-24.558325-24.558325l0-66.911946c0-13.506619 11.050684-24.558325 24.558325-24.558325l49.855478 0 0-60.644195c0-54.450123 44.549635-98.999758 98.999758-98.999758l554.22673 0c54.450123 0 98.999758 44.549635 98.999758 98.999758L919.5276 729.763908C919.528624 784.214031 874.977965 828.763666 820.528865 828.763666zM411.767158 570.357362c0.008186 17.310248 14.176884 31.466666 31.488155 31.459502l69.15401-0.031722 1.127683 69.1448c0.282433 17.308201 14.674211 31.238468 31.982412 30.956036l27.125801-0.442068c17.308201-0.282433 31.238468-14.674211 30.956036-31.982412l-1.104147-67.717288 67.726497-0.030699c17.310248-0.008186 31.466666-14.176884 31.459502-31.488155l-0.01228-27.129894c-0.008186-17.310248-14.176884-31.466666-31.488155-31.459502l-69.15401 0.031722-1.127683-69.1448c-0.282433-17.308201-14.674211-31.238468-31.982412-30.956036l-27.125801 0.442068c-17.308201 0.282433-31.238468 14.674211-30.956036 31.982412l1.104147 67.717288-67.726497 0.030699c-17.310248 0.008186-31.466666 14.176884-31.459502 31.488155L411.767158 570.357362zM807.284213 95.434815c0-2.532683-2.072195-4.604878-4.604878-4.604878l-518.529717 0c-2.532683 0-4.604878 2.072195-4.604878 4.604878l0 37.202297c0 2.532683 2.072195 4.604878 4.604878 4.604878l518.529717 0c2.532683 0 4.604878-2.072195 4.604878-4.604878L807.284213 95.434815zM807.284213 246.776685c0-3.190669-2.610454-5.801123-5.801123-5.801123L453.817879 240.975563c-3.190669 0-5.801123 2.610454-5.801123 5.801123l0 34.808784c0 3.190669 2.610454 5.801123 5.801123 5.801123l347.665211 0c3.190669 0 5.801123-2.610454 5.801123-5.801123L807.284213 246.776685z"  horiz-adv-x="1024" />

    
    <glyph glyph-name="iconfontconsult" unicode="&#59079;" d="M641.4336 459.9808 237.1584 459.9808c-8.192 0-14.7456-6.5536-14.7456-14.7456 0-8.192 6.5536-14.7456 14.7456-14.7456l404.2752 0c8.192 0 14.7456 6.5536 14.7456 14.7456C656.1792 453.4272 649.6256 459.9808 641.4336 459.9808L641.4336 459.9808zM641.4336 459.9808M582.0416 322.56 296.7552 322.56c-8.192 0-14.7456-6.5536-14.7456-14.7456 0-8.192 6.5536-14.7456 14.7456-14.7456l285.2864 0c8.192 0 14.7456 6.5536 14.7456 14.7456C596.7872 316.0064 590.0288 322.56 582.0416 322.56L582.0416 322.56zM582.0416 322.56M871.0144 762.88l-575.488 0c-37.0688 0-67.1744-29.696-67.1744-66.1504L228.352 660.48c0-12.288 9.8304-22.1184 22.1184-22.1184 12.288 0 22.1184 9.8304 22.1184 22.1184L272.5888 696.7296c0 12.0832 10.24 21.9136 22.9376 21.9136l575.488 0c12.6976 0 22.9376-9.8304 22.9376-21.9136l0-352.8704c0-12.0832-10.24-21.9136-22.9376-21.9136L835.584 321.9456c-12.288 0-22.1184-9.8304-22.1184-22.1184 0-12.0832 9.8304-22.1184 22.1184-22.1184l35.2256 0c37.0688 0 67.1744 29.696 67.1744 66.1504L937.984 696.7296C937.984 733.184 907.8784 762.88 871.0144 762.88L871.0144 762.88zM871.0144 762.88M727.04 619.1104 151.552 619.1104c-37.0688 0-67.1744-29.696-67.1744-66.1504l0-352.8704c0-36.4544 30.1056-66.1504 67.1744-66.1504l188.8256 0 80.4864-121.4464c4.096-6.144 11.0592-9.8304 18.432-9.8304 7.3728 0 14.336 3.6864 18.432 9.8304l80.4864 121.4464L727.04 133.9392c15.7696 0 31.1296 5.7344 43.2128 15.9744 15.1552 12.6976 23.9616 30.9248 23.9616 50.176L794.2144 552.96C794.2144 589.4144 764.1088 619.1104 727.04 619.1104L727.04 619.1104zM750.1824 200.0896c0-8.3968-5.12-13.9264-7.9872-16.384-3.072-2.4576-8.192-5.5296-14.9504-5.5296l-200.704 0c-7.3728 0-14.336-3.6864-18.432-9.8304l-68.8128-103.6288L370.688 168.3456c-4.096 6.144-11.0592 9.8304-18.432 9.8304L151.552 178.176c-12.6976 0-22.9376 9.8304-22.9376 21.9136L128.6144 552.96c0 12.0832 10.24 21.9136 22.9376 21.9136l575.488 0c12.6976 0 22.9376-9.8304 22.9376-21.9136L749.9776 200.0896 750.1824 200.0896zM750.1824 200.0896"  horiz-adv-x="1024" />

    
    <glyph glyph-name="geren" unicode="&#58892;" d="M702.511985 740.189352 702.511985 740.189352c-48.886407 48.860824-116.037806 78.917374-191.096293 78.917374-74.487481 0-141.909034-30.055526-190.498682-78.917374-48.860824-48.88436-79.18855-116.278283-79.18855-190.797487 0-74.188676 30.327726-141.909034 79.18855-190.797487l0 0 0-0.298805c48.589648-48.562019 116.0112-78.889745 190.498682-78.889745 75.058486 0 141.909034 30.327726 190.769858 79.18855 48.888454 48.888454 79.216179 116.608811 79.216179 190.797487 0 74.519204-30.327726 141.913127-79.216179 190.797487L702.511985 740.189352 702.511985 740.189352zM633.595382 239.206266 633.595382 239.206266c0 0-49.79101-28.880771-122.17969-28.880771s-121.609709 28.880771-121.609709 28.880771c-73.02006 0-138.946562-30.02892-186.639794-78.346369-48.317449-47.692209-77.748758-113.918539-77.748758-186.639794l0-25.326828 773.163091 0 0 25.326828c0 72.721255-30.02892 138.946562-78.019934 186.639794l0 0.597611C772.569574 209.178369 706.642049 239.206266 633.595382 239.206266L633.595382 239.206266z"  horiz-adv-x="1024" />

    
    <glyph glyph-name="zixun" unicode="&#58923;" d="M512 220.16c-72.507 0-132.442 44.089-142.023 81.92 0 0-4.139 20.48 19.188 20.48 9.171 0 21.85-20.48 21.85-20.48 20.38-22.911 54.593-40.96 100.985-40.96 46.392 0 80.606 18.049 100.985 40.96 0 0 13.703 20.48 21.895 20.48 25.748 0 19.143-20.48 19.143-20.48-9.582-37.831-69.516-81.92-142.023-81.92v0 0 0 0 0zM424.328 88.66c23.599 18.223 67.121 7.431 67.121-32.376-0 17.319-19.995 31.221-36.388 25.047 13.269 4.997 13.269 4.997 53.075 19.989 39.806 14.992 39.806 14.992 53.075 19.989 2.12 0.798 4.303 1.42 6.525 1.857 133.324 26.245 230.983 143.724 230.983 281.314 0 158.351-128.369 286.72-286.72 286.72-158.351 0-286.72-128.369-286.72-286.72 0-138.29 98.64-256.186 232.852-281.675 19.329-3.671 33.317-20.566 33.317-40.241v0c0-21.833 0-21.833 0-28.951 0-1.013 0-1.013 0-1.489 0-0.152 0-0.152 0-0.198 0-0.002 0-0.002-40.485-0.003-0.311 1.343-0.475 2.801-0.475 4.361 0 0 0-20.181-0 26.28-8.852 1.681-17.577 3.718-26.161 6.096v0zM450.964 51.923l40.485 0.001c0 0.005 0 0.005 0 0.015 0 0.028 0 0.028 0 0.077 0 0.735 0 0.735 0 2.084 0 0.002 0 0.002 0 0.003 0 1.636 0 1.636 0 2.181l-40.96-0c0 0 0-20.181-0 26.28-151.57 28.786-266.169 161.968-266.169 321.916 0 180.973 146.707 327.68 327.68 327.68 180.973 0 327.68-146.707 327.68-327.68 0-159.195-113.523-291.875-264.032-321.503-0 0-106.15-39.978-106.15-39.978-8.968-3.378-16.597 0.547-18.534 8.924v0z"  horiz-adv-x="1024" />

    
    <glyph glyph-name="wechat-copy" unicode="&#58995;" d="M693.12 548.736c11.776 0 23.36-0.896 35.008-2.176-31.36 146.048-187.456 254.528-365.696 254.528-199.232 0-362.432-135.744-362.432-308.224 0-99.52 54.272-181.248 145.024-244.736l-36.224-108.992 126.72 63.488c45.312-8.896 81.664-18.112 126.912-18.112 11.392 0 22.656 0.512 33.792 1.344-7.040 24.256-11.2 49.6-11.2 76.032 0.064 158.336 136 286.848 308.096 286.848zM498.304 646.976c27.392 0 45.376-17.984 45.376-45.248 0-27.136-17.984-45.312-45.376-45.312-27.072 0-54.336 18.176-54.336 45.312 0 27.328 27.2 45.248 54.336 45.248zM244.672 556.416c-27.2 0-54.592 18.176-54.592 45.312 0 27.264 27.392 45.248 54.592 45.248s45.248-17.92 45.248-45.248c0-27.136-18.048-45.312-45.248-45.312zM1024 266.24c0 144.896-145.024 262.976-307.904 262.976-172.48 0-308.224-118.144-308.224-262.976 0-145.28 135.808-262.976 308.224-262.976 36.096 0 72.512 9.024 108.736 18.112l99.392-54.528-27.264 90.624c72.768 54.656 127.040 127.040 127.040 208.768zM616.128 311.616c-17.984 0-36.224 17.92-36.224 36.224 0 18.048 18.24 36.224 36.224 36.224 27.52 0 45.376-18.176 45.376-36.224 0-18.304-17.856-36.224-45.376-36.224zM815.488 311.616c-17.856 0-36.032 17.92-36.032 36.224 0 18.048 18.112 36.224 36.032 36.224 27.264 0 45.376-18.176 45.376-36.224 0-18.304-18.112-36.224-45.376-36.224z"  horiz-adv-x="1024" />

    
    <glyph glyph-name="tianjia" unicode="&#58973;" d="M912.770709 896H111.229291C49.90869 896 0.021489 846.1128 0.021489 784.792199v-801.541419c0-61.320601 49.8872-111.207801 111.207802-111.207801h801.541418c61.320601 0 111.207801 49.8872 111.207802 111.207801v801.541419c0 61.320601-49.888224 111.207801-111.207802 111.207801z m89.179089-912.74922c0-49.173956-40.006156-89.179089-89.179089-89.179089H111.229291c-49.173956 0-89.179089 40.006156-89.179089 89.179089v801.541419c0 49.173956 40.006156 89.179089 89.179089 89.179088h801.541418c49.173956 0 89.179089-40.006156 89.179089-89.179088v-801.541419zM776.135796 395.035334H514.24718V655.79422c0 6.082532-4.931313 11.013845-11.013844 11.013844s-11.013845-4.931313-11.013845-11.013844v-260.758886h-260.758885c-6.083555 0-11.013845-4.931313-11.013845-11.013845s4.931313-11.013845 11.013845-11.013844h260.758885v-261.888616c0-6.083555 4.931313-11.013845 11.013845-11.013844 6.083555 0 11.013845 4.931313 11.013844 11.013844V373.006622h261.888616c6.083555 0 11.013845 4.931313 11.013845 11.013844 0.001023 6.083555-4.930289 11.014868-11.013845 11.014868z"  horiz-adv-x="1024" />

    
    <glyph glyph-name="fangan-copy-copy" unicode="&#58884;" d="M178.672 496.42c0 91.938 32.551 170.368 97.21 236.163 64.677 65.772 143.224 98.448 235.242 98.448 92.020 0 170.548-32.676 236.126-98.448 65.527-65.794 98.078-144.225 98.078-236.163 0-12.632-0.426-25.714-1.751-38.346-2.158-2.183-1.727-6.536-1.727-8.711l-5.209-31.373c-2.177 0-1.707-3.053-1.707-5.229-3.502-11.757-6.962-22.213-10.445-31.365v-1.751c0 0-0.444-0.432-1.725-1.732-4.785-12.631-9.13-23.963-13.896-33.118 0-1.301-0.444-1.751-1.745-1.751-5.66-11.756-12.15-22.645-19.111-33.117-6.918-10.456-14.297-20.893-22.557-31.356 0 0-0.451-0.444-0.858-0.875l-0.875-0.851c-6.935-8.28-15.198-16.132-24.31-24.412 0 0-0.858-0.432-2.606-1.75-4.335-3.033-4.76-5.654-9.537-10.438-2.183 0-5.192-1.325-5.192-3.52l-16.497-13.038-3.483-2.627-2.602-1.751c-10.417-8.261-17.822-17.416-22.58-27.872-4.779-10.48-9.112-17.86-13.879-22.662-4.777-4.802-13.463-6.979-26.038-6.979h-249.993c-12.595 0-21.28 2.196-26.040 6.979-4.783 4.801-9.563 12.181-14.77 22.662-5.21 10.457-12.577 19.611-21.69 27.872-1.301 0-2.176 0.45-3.475 1.751l-2.608 2.627-16.498 13.038-5.21 3.52-12.144 12.188-24.316 24.412c0 0-0.425 0.407-0.851 0.851l-0.874 0.875c-16.073 20.9-29.95 41.386-41.67 64.473-1.301 0-1.725 0.426-1.725 1.751-4.785 9.154-9.119 20.488-13.896 33.118-1.301 0-1.732 0.45-1.732 1.732v1.751c-3.476 9.153-6.953 19.61-10.411 31.365 0 0-0.451 0.876-0.876 2.627l-0.875 2.608c-2.178 9.153-3.908 19.586-5.211 31.366 0 2.175-1.725 6.535-1.725 8.711-1.284 12.633-1.733 25.715-1.733 38.346v0 0 0 0zM374.854 106.032h277.768c16.071 0 27.765-11.763 27.765-27.896 0-16.091-11.694-27.873-27.765-27.873l-277.768-0c-16.073 0-27.787 11.782-27.787 27.873 0.001 16.133 11.714 27.896 27.787 27.896v0 0 0 0zM387.004-5.498h251.723l-102.431-52.285c-16.054-6.998-34.283-6.998-50.357 0l-98.935 52.285zM541.498 663.739c33.446 0 65.122-13.508 94.646-40.956 29.498-27.463 44.244-61.438 44.244-101.968 0-13.932 11.722-27.89 27.776-27.89 16.071 0 27.791 13.958 27.791 27.89 0 60.565-19.531 108.498-59.042 144.648-39.487 36.177-84.615 54.038-135.414 54.038-16.054 0-27.767-11.758-27.767-27.874 0-16.133 11.715-27.888 27.767-27.888v0 0 0zM541.498 663.739z"  horiz-adv-x="1024" />

    
    <glyph glyph-name="zixun1" unicode="&#59030;" d="M512 839.111111c103.310222 0 191.089778-36.465778 263.395556-109.397333 72.248889-72.988444 108.430222-160.426667 108.430222-262.428445v-414.435555c0-33.564444-12.231111-62.634667-36.807111-87.153778-24.462222-24.519111-53.532444-36.807111-87.153778-36.807111H512v83.285333h288.540444v40.675556H636.017778V384h164.579555V467.285333c0 80.042667-28.046222 148.138667-84.195555 204.288-56.206222 56.206222-124.302222 84.252444-204.344889 84.252445s-148.138667-28.046222-204.288-84.195556c-56.206222-56.206222-84.252444-124.302222-84.252445-204.344889V384H387.982222v-331.150222H264.135111c-33.564444 0-62.634667 12.231111-87.153778 36.807111-24.576 24.462222-36.807111 53.532444-36.807111 87.096889V467.285333c0 102.001778 36.124444 189.44 108.430222 262.428445C320.910222 802.645333 408.689778 839.111111 512 839.111111z"  horiz-adv-x="1024" />

    
    <glyph glyph-name="shuxiebingli" unicode="&#58890;" d="M730.190769 607.389538l92.396308-72.231384-345.521231-441.974154-92.396308 72.231385zM823.729231 727.276308l92.435692-72.231385-68.135385-87.158154-92.435692 72.192zM353.713231 125.676308l92.475077-72.231385-103.227077-36.903385zM841.255385-111.379692H172.425846c-35.603692 0-64.630154 28.396308-64.630154 63.369846V805.297231c0 34.934154 28.987077 63.291077 64.630154 63.291077h403.456v-39.384616H172.425846c-13.942154 0-25.245538-10.712615-25.245538-23.906461v-853.307077c0-13.233231 11.303385-23.985231 25.245538-23.985231H841.255385c13.902769 0 25.166769 10.752 25.166769 23.985231V369.230769h39.384615v-417.201231c0-35.012923-28.947692-63.409231-64.551384-63.40923zM212.952615 707.268923h439.532308v-78.769231H212.952615zM230.203077 517.671385h253.794461v-78.769231H230.203077z"  horiz-adv-x="1024" />

    
    <glyph glyph-name="scheme-copy" unicode="&#58880;" d="M733.789 592.333c0 13.693-11.125 24.818-24.818 24.818h-251.296c-13.695 0-24.818-11.125-24.818-24.818s11.125-24.818 24.818-24.818h251.296c13.693 0 24.818 11.125 24.818 24.818zM389.095 580.914c0-7.417-5.983-13.398-13.398-13.398h-72.082c-7.417 0-13.398 5.983-13.398 13.398v65.36c0 7.417 5.983 13.398 13.398 13.398h72.082c7.417 0 13.398-5.983 13.398-13.398v-65.353zM733.789 450.197c0 13.693-11.125 24.818-24.818 24.818h-251.296c-13.695 0-24.818-11.125-24.818-24.818s11.125-24.818 24.818-24.818h251.296c13.693 0 24.818 11.12 24.818 24.818zM389.095 438.773c0-7.417-5.983-13.398-13.398-13.398h-72.082c-7.417 0-13.398 5.983-13.398 13.398v65.36c0 7.417 5.983 13.398 13.398 13.398h72.082c7.417 0 13.398-5.983 13.398-13.398v-65.36zM733.789 321.948c0 13.695-11.125 24.818-24.818 24.818h-251.296c-13.695 0-24.818-11.125-24.818-24.818s11.125-24.816 24.818-24.816h251.296c13.693 0 24.818 11.125 24.818 24.818zM389.095 310.541c0-7.417-5.983-13.398-13.398-13.398h-72.082c-7.417 0-13.398 5.983-13.398 13.398v65.36c0 7.417 5.983 13.398 13.398 13.398h72.082c7.417 0 13.398-5.979 13.398-13.398v-65.36zM883.531 768.335h-129.981c-14.535 0-26.301-10.775-26.301-24.128 0-13.297 11.771-24.128 26.301-24.128h83.351c0.246 0 0.439 0.144 0.703 0.144h21.851v-493.693h-694.858v493.693h611.603v0.639h11.076c13.103 0 23.732 10.629 23.732 23.732s-10.629 23.732-23.732 23.732h-646.754c-13.25 0-24.028-10.727-24.028-24.028v-541.745c0-13.297 10.775-24.028 24.028-24.028h328.271l1.087-131.404h-240.469c-13.103 0-23.73-10.629-23.73-23.732 0-13.051 10.629-23.682 23.73-23.682h551.19c13.051 0 23.679 10.629 23.679 23.682 0 13.103-10.629 23.732-23.679 23.732h-226.971l-1.087 131.359h330.992c13.25 0 23.978 10.779 23.978 24.028v541.801c0 13.297-10.775 24.028-23.978 24.028z"  horiz-adv-x="1024" />

    
    <glyph glyph-name="dianzibingli4" unicode="&#58978;" d="M948.148 42.705h-872.296c-29.962 0-33.185 26.889-37.926 37.888v568.889c0 29.962 24.273 39.102 54.234 39.102l135.396-1.177v-75.814l-87.495 2.048c-14.976 0-27.117-12.141-27.117-27.117 0 0 0 0 0 0v-403.266c0-14.981 12.136-27.117 27.117-27.117l732.235 0.303c14.981 0 39.102 11.833 39.102 26.814v403.266c0 14.943-24.121 25.031-39.102 25.031l-75.169 2.086v74.942h133.461c29.962 0 55.486-9.14 55.486-39.102v-568.889c0-27.572-19.835-40.277-37.926-37.888zM682.667 308.148h-341.334c-29.241-4.855-34.323 12.212-37.926 37.964v417.147c0 29.355 37.926 37.926 37.926 37.926h113.778v37.926s-1.365 39.633 37.926 37.964c17.901-0.796 23.059-0.455 37.926 0 27.572 0.796 37.205-20.025 37.926-37.964v-37.926h113.778s33.185 3.262 37.926-37.926v-417.147s-8.002-37.964-37.926-37.964zM530.963 801.185h-37.926v-37.926h37.926v37.926zM682.667 725.333c-1.82 20.214-6.713 32.996-37.926 37.926-3.565-16.953-21.732-86.509-75.852-75.852h-113.778c-67.167-5.916-80.365 75.51-75.852 75.852-36.485-2.958-39.102-28.824-37.926-37.926v-341.333c0-29.317 8.002-37.888 37.926-37.888h265.481c29.924 0 37.926 8.571 37.926 37.888 0.19 0.721-0.265 321.915 0 341.333zM606.815 535.703h-189.63c-20.025 0-20.025 37.926 0 37.926h189.63c20.025 0 20.025-37.926 0-37.926zM606.815 611.593h-189.63c-20.025 0-20.025 37.888 0 37.888h189.63c20.025 0 20.025-37.888 0-37.888zM417.185 497.778h189.63c18.508 0 18.508-37.926 0-37.926h-189.63c-18.508 0-18.508 37.926 0 37.926zM417.185 421.926h189.63c18.508 0 18.508-37.926 0-37.926h-189.63c-18.508 0-18.508 37.926 0 37.926zM341.333 4.779h341.333v-75.852h37.926v-37.926h-417.185v37.926h37.926v75.852z"  horiz-adv-x="1024" />

    
    <glyph glyph-name="shijian" unicode="&#59347;" d="M609.026987 713.898667H414.29632v-58.026667h194.730667v58.026667z m155.477333 0v-57.685334h75.093333c22.101333 0 40.704-18.602667 40.704-40.704v-601.941333H143.021653V615.509333c0 22.101333 18.688 40.704 40.789334 40.704h75.605333v57.685334h-72.192C131.16032 713.898667 85.33632 668.16 85.33632 612.096v-590.250667a100.693333 100.693333 0 0 1 100.181333-101.802666h651.264c56.064 0 101.888 45.824 101.888 101.802666v-41.301333 631.552c0 55.978667-45.824 101.802667-101.888 101.802667H764.589653z m-78.677333-154.624a39.509333 39.509333 0 0 1 39.68 38.4V772.266667A39.509333 39.509333 0 0 1 685.826987 810.666667a38.4 38.4 0 0 1-38.4-38.4v-174.592c0-21.162667 17.066667-38.4 38.4-38.4z m-349.354667 0a39.509333 39.509333 0 0 1 39.68 38.4V772.266667A39.509333 39.509333 0 0 1 336.47232 810.666667a38.4 38.4 0 0 1-38.4-38.4v-174.592c0-21.162667 17.152-38.4 38.4-38.4zM143.021653 439.210667h737.28v-425.642667H143.106987V439.210667z m581.546667-189.952a58.368 58.368 0 1 1 0 116.736 58.368 58.368 0 0 1 0-116.736z m-213.333333-213.333334a58.368 58.368 0 1 1 0 116.821334 58.368 58.368 0 0 1 0-116.736z m-214.784 0a58.368 58.368 0 1 1 0 116.736 58.368 58.368 0 0 1 0-116.650666z m214.784 213.333334A58.368 58.368 0 1 1 511.149653 366.08a58.368 58.368 0 0 1 0-116.736z m-213.76 0a58.282667 58.282667 0 1 1 0 116.650666 58.282667 58.282667 0 0 1 0-116.650666z"  horiz-adv-x="1024" />

    
    <glyph glyph-name="yiliao" unicode="&#58886;" d="M888.324 361.524l-367.224-367.226c-24.825-24.797-54.868-41.024-86.592-49.068 15.004 17.522 27.491 37.212 36.812 58.652 10.264 6.015 20.092 12.94 28.872 21.719l191.080 191.063-125.842 125.871 183.587 183.577c10.492 10.493 10.492 27.509 0 37.999-10.492 10.476-27.491 10.476-37.984 0l-183.602-183.594-36.821 36.827v78.29l131.797 131.782c73.413 73.426 192.469 73.426 265.918 0 73.412-73.428 73.412-192.481-0.001-265.892zM490.61 267.724v75.964l36.821 36.829 38-37.982-74.821-74.811zM266.767-64.633c-103.841 0-188.028 84.183-188.028 188.020l-0 519.312c0 103.837 84.187 188.020 188.028 188.020s188.028-84.183 188.028-188.020v-519.312c0-103.838-84.187-188.020-188.028-188.020zM417.878 635.371c0 81.803-69.303 148.115-151.112 148.115-81.807 0-152.614-66.312-152.614-148.115v-270.244h72.030v-259.647c0-14.829 12.032-26.86 26.861-26.86s26.861 12.031 26.861 26.86l0 259.647h177.973l-0 270.244zM213.045 651.652c14.829 0 26.861-12.014 26.861-26.86v-259.665h-53.723l0 259.665c0 14.846 12.033 26.86 26.862 26.86z"  horiz-adv-x="1024" />

    
    <glyph glyph-name="fangan" unicode="&#58962;" d="M0 10.378378c0-76.523243 278.832432-138.378378 622.702703-138.378378s622.702703 61.993514 622.702702 138.378378-278.832432 138.378378-622.702702 138.378379S0 87.04 0 10.378378zM113.747027 8.579459C113.747027-29.059459 341.656216-58.810811 622.702703-58.810811s508.955676 30.443243 508.955675 68.082162S903.749189 76.661622 622.702703 76.661622s-508.955676-30.443243-508.955676-68.082163zM604.021622 650.24h539.675675a90.499459 90.499459 0 0 1-88.838919 87.731892h-539.675675a90.499459 90.499459 0 0 0 88.838919-87.731892zM1146.188108 633.081081h-539.675676a18.127568 18.127568 0 0 0-18.681081 17.574054 72.371892 72.371892 0 0 1-70.157837 70.01946 17.712432 17.712432 0 1 0 0 35.286486h539.675675a106.828108 106.828108 0 0 0 107.52-103.368649 20.48 20.48 0 0 0-6.227027-13.837837 18.404324 18.404324 0 0 0-12.454054-5.811892z m-525.837838 37.223784h503.005406a69.189189 69.189189 0 0 1-66.006487 50.923243H595.718919a108.488649 108.488649 0 0 0 24.908108-50.923243zM963.943784 295.161081V654.114595c0 39.161081 31.135135 70.019459 76.384865 79.844324a129.522162 129.522162 0 0 1-29.05946 3.874595H378.603243a48.294054 48.294054 0 0 1-16.605405-1.937298h-6.227027c-60.194595 0-107.52-39.161081-107.52-87.731892v-557.803243c0-48.985946 49.816216-87.731892 107.52-87.731892h500.652973c60.194595 0 107.52 39.161081 107.52 87.731892v204.8zM856.423784-12.869189H355.770811c-70.157838 0-128.276757 46.91027-128.276757 105.305946V650.24c0 58.672432 58.118919 105.305946 128.276757 105.305946H359.783784c6.227027 0 12.454054 1.937297 16.605405 1.937297H1010.162162a192.207568 192.207568 0 0 0 33.210811-3.874594 19.096216 19.096216 0 0 0 14.52973-17.574054 19.096216 19.096216 0 0 0-14.52973-17.574054c-35.286486-7.887568-62.27027-35.286486-62.27027-64.207568v-359.091892a18.681081 18.681081 0 0 0-37.362162 0V654.114595a89.115676 89.115676 0 0 0 29.059459 66.144864H351.619459c-49.816216 0-88.700541-31.827027-88.70054-70.019459v-557.803243c0-39.161081 39.437838-70.019459 88.838919-70.01946h500.514594c49.816216 0 88.838919 31.273514 88.838919 70.01946V181.967568a18.681081 18.681081 0 0 0 37.362163 0v-89.66919c4.151351-58.672432-51.476757-105.305946-122.04973-105.305946zM963.943784 221.128649a23.109189 23.109189 0 0 0-14.52973 5.811892 16.605405 16.605405 0 0 0-6.227027 11.762162 20.618378 20.618378 0 0 0 6.227027 13.837838 22.832432 22.832432 0 0 0 27.675676 0 17.297297 17.297297 0 0 0 6.227027-13.837838 13.837838 13.837838 0 0 0-6.227027-11.762162 12.730811 12.730811 0 0 0-12.454054-5.811892zM506.88 786.819459h539.675676a90.499459 90.499459 0 0 1-88.838919 87.731892h-539.675676a90.499459 90.499459 0 0 0 88.838919-87.731892zM1046.970811 769.107027h-539.675676a18.127568 18.127568 0 0 0-18.681081 17.574054 72.371892 72.371892 0 0 1-70.157838 70.01946 18.127568 18.127568 0 0 0-18.681081 17.574054A18.127568 18.127568 0 0 0 418.041081 892.125405h539.675676A106.828108 106.828108 0 0 0 1065.513514 788.756757a20.48 20.48 0 0 0-6.227028-13.837838 12.730811 12.730811 0 0 0-12.454054-5.811892zM523.485405 806.330811h502.728649a69.189189 69.189189 0 0 1-66.006486 50.923243H498.162162a108.488649 108.488649 0 0 0 24.908108-50.923243zM877.180541 356.324324v-181.275675a96.864865 96.864865 0 0 0-99.217298-93.543784H316.332973a96.864865 96.864865 0 0 0-99.217297 93.543784V778.931892a96.864865 96.864865 0 0 0 99.217297 93.543784h6.227027c4.151351 0 10.378378 1.937297 13.837838 1.937297h585.34054a110.702703 110.702703 0 0 0 26.983784-3.874595 95.065946 95.065946 0 0 1-70.157838-87.731892V356.324324zM777.963243 62.962162H316.332973a117.068108 117.068108 0 0 0-119.974054 113.47027V780.869189A117.068108 117.068108 0 0 0 316.332973 894.062703h4.151351c6.227027 0 10.378378 1.937297 16.605406 1.937297h585.34054a218.914595 218.914595 0 0 0 33.210811-3.874595 19.096216 19.096216 0 0 0 14.52973-17.574054 19.096216 19.096216 0 0 0-14.52973-17.574054A74.032432 74.032432 0 0 1 899.459459 786.819459v-608.864864a118.59027 118.59027 0 0 0-121.634594-115.130811zM316.332973 854.486486A78.322162 78.322162 0 0 1 235.243243 778.931892v-604.713514a78.460541 78.460541 0 0 1 80.536216-75.969729h461.768649A78.322162 78.322162 0 0 1 857.945946 174.218378v608.864865a100.462703 100.462703 0 0 0 31.135135 74.032433H337.08973a27.675676 27.675676 0 0 1-12.454054-1.937298zM684.972973 170.343784a94.374054 94.374054 0 0 0 96.864865 91.606486H196.774054a91.744865 91.744865 0 1 1 0-183.212973h585.340541c-53.967568 1.937297-96.864865 43.035676-96.864865 91.606487zM782.114595 62.962162h-585.340541a109.457297 109.457297 0 1 0 0 218.361081h585.340541a17.712432 17.712432 0 1 0 0-35.286486 74.170811 74.170811 0 1 1 0-147.926487 17.712432 17.712432 0 1 0 0-35.286486zM196.358919 244.652973a74.170811 74.170811 0 1 1 0-147.926487h498.162162A106.828108 106.828108 0 0 0 664.216216 170.620541a109.042162 109.042162 0 0 0 31.135135 74.032432z m600.285405 440.735135H440.873514a17.712432 17.712432 0 1 0 0 35.286487h355.77081a17.712432 17.712432 0 1 0 0-35.286487z m-87.178378-122.88H440.458378a17.712432 17.712432 0 1 0 0 35.286487h269.007568a17.712432 17.712432 0 1 0 0-35.286487z m-111.671351-124.54054H442.810811a17.712432 17.712432 0 1 0 0 35.286486h154.983784a17.712432 17.712432 0 1 0 0-35.286486zM316.332973 702.962162a22.832432 22.832432 0 1 1 22.832432 21.587027 22.140541 22.140541 0 0 1-22.832432-21.587027M316.332973 580.082162a22.832432 22.832432 0 1 1 22.832432 21.587027 22.140541 22.140541 0 0 1-22.832432-21.587027M316.332973 455.264865a22.832432 22.832432 0 1 1 22.832432 21.587027 22.278919 22.278919 0 0 1-22.832432-21.587027"  horiz-adv-x="1245" />

    
    <glyph glyph-name="xiaoxi" unicode="&#58883;" d="M512 227.960471L0 625.121882V22.588235h1024V625.121882z m0 95.232L1024 720.293647V745.411765H0v-25.118118z"  horiz-adv-x="1024" />

    
    <glyph glyph-name="zixun2" unicode="&#58882;" d="M667.648 471.552H183.296c-9.728 0-17.408-7.68-17.408-17.408s8.192-17.408 17.408-17.408h484.352c9.728 0 17.408 7.68 17.408 17.408 0 9.216-7.68 17.408-17.408 17.408zM596.48 306.688H253.952c-9.728 0-17.408-7.68-17.408-17.408s8.192-17.408 17.408-17.408h341.504c9.728 0 17.408 7.68 17.408 17.408 1.024 9.728-6.656 17.408-16.384 17.408zM942.592 834.56H252.928c-44.544 0-80.384-35.328-80.384-79.36V711.68c0-14.848 11.776-26.624 26.624-26.624s26.624 11.776 26.624 26.624v43.52c0 14.848 12.288 26.112 27.648 26.112h690.176c15.36 0 27.648-11.776 27.648-26.112v-422.912c0-14.848-12.288-26.112-27.648-26.112H901.12c-14.848 0-26.624-11.776-26.624-26.624 0-14.848 11.776-26.624 26.624-26.624h42.496c44.544 0 80.384 35.328 80.384 79.36V754.688c-1.024 44.032-36.864 79.872-81.408 79.872zM770.048 662.016H80.384C35.84 662.016 0 626.688 0 582.656v-422.912c0-43.52 35.84-79.36 80.384-79.36h226.304l96.256-145.408c5.12-7.68 13.312-11.776 22.528-11.776 8.704 0 16.896 4.608 22.528 11.776l96.256 145.408h226.304c18.944 0 36.864 6.656 51.712 18.944 17.92 15.36 28.672 36.864 28.672 60.416v422.912c-0.512 44.032-36.352 79.36-80.896 79.36z m27.648-501.76c0-9.728-6.144-16.384-9.728-19.456-3.584-3.072-9.728-6.656-17.92-6.656h-240.64c-8.704 0-16.896-4.608-22.528-11.776l-81.408-123.904L343.04 121.856c-5.12 7.68-13.312 11.776-22.528 11.776H80.384c-15.36 0-27.648 11.776-27.648 26.112v422.912c0 14.848 12.288 26.112 27.648 26.112h690.176c15.36 0 27.648-11.776 27.648-26.112v-422.912h-0.512z"  horiz-adv-x="1024" />

    
    <glyph glyph-name="binglishouye" unicode="&#59098;" d="M782.1312-54.784H241.0496c-19.456 0-38.161067 10.103467-51.4048 27.784533C177.425067-10.6496 170.666667 10.752 170.666667 33.1776V773.700267c0 22.528 6.7584 43.9296 18.978133 60.177066 13.243733 17.885867 32.017067 27.989333 51.4048 27.989334h541.013333c19.456 0 38.161067-10.103467 51.370667-27.784534 12.219733-16.349867 18.978133-37.751467 18.978133-60.177066v-740.522667c0-22.528-6.7584-43.9296-18.978133-60.2112-13.1072-17.749333-31.812267-27.9552-51.3024-27.9552zM241.0496 825.719467c-18.261333 0-34.235733-24.234667-34.235733-51.882667v-740.5568c0-27.648 15.9744-51.882667 34.235733-51.882667h541.013333c10.888533 0 18.773333 8.260267 22.391467 13.312 7.4752 10.001067 11.707733 24.029867 11.707733 38.570667V773.802667c0 27.648-15.940267 51.882667-34.235733 51.882666H241.0496zM307.2 486.4h386.048v-37.1712H307.2zM307.2 349.866667h386.048v-37.2736H307.2zM307.2 213.333333h386.048v-37.1712H307.2zM477.866667 725.333333h30.890666v-156.535466H477.866667V725.333333zM409.6 657.066667h156.535467v-30.890667H409.6V657.066667z"  horiz-adv-x="1024" />

    
    <glyph glyph-name="dianzibingli-" unicode="&#58940;" d="M333.8 659.8h348.6c28.5 0 51.7 22 51.7 49.1v69.9c0 27.1-23.2 49.1-51.7 49.1H333.8c-28.5 0-51.7-22-51.7-49.1V709c-0.1-27.1 23.2-49.2 51.7-49.2zM827.6 759.6c-3.3 0.3-6.4 0.7-9.7 0.7h-63.6c0-0.6 0.2-1.1 0.2-1.7v-69.8c0-27.1-23.2-49.1-51.7-49.1H313.6c-28.5 0-51.7 22-51.7 49.1v69.8c0 0.6 0.2 1.1 0.2 1.7h-66.2c-28.5 0-51.7-22-51.7-49.1v-721.6c0-27.1 23.2-49.1 51.7-49.1h624.5c28.5 0 51.7 22 51.7 49.1V711.2c0 24.7-19.4 45-44.5 48.4zM366.5 445.8c0 12.2 10 22.2 22.2 22.2h95.9v95.6c0 12.2 10 22.2 22.2 22.2h2.5c12.3 0 22.2-9.9 22.2-22.2V468h95.9c12.3 0 22.2-9.9 22.2-22.2v-2.5c0-12.2-10-22.2-22.2-22.2h-95.8v-95.6c0-12.2-10-22.2-22.2-22.2h-2.5c-12.3 0-22.2 9.9-22.2 22.2v95.6h-95.9c-12.3 0-22.2 9.9-22.2 22.2v2.5h-0.1zM625 29.4H406.1c-12.9 0-23.4 10.5-23.4 23.4 0 12.9 10.5 23.4 23.4 23.4h218.8c12.9 0 23.4-10.5 23.4-23.4 0.1-12.9-10.4-23.4-23.3-23.4z m66.5 130.7H337.9c-12.9 0-23.4 10.5-23.4 23.4 0 12.9 10.5 23.4 23.4 23.4h353.6c12.9 0 23.4-10.5 23.4-23.4 0-13-10.4-23.4-23.4-23.4z"  horiz-adv-x="1024" />

    
    <glyph glyph-name="lishibingli" unicode="&#58885;" d="M511.860829 849.454545c40.029091 0 76.334545-16.430545 102.493091-42.496 18.292364-18.478545 31.883636-41.658182 38.958545-67.723636h117.341091c12.288 0 22.248727-9.914182 22.248728-21.876364v-20.340363h101.422545c19.874909 0 36.584727-16.430545 36.584727-37.003637v-704.977454a36.770909 36.770909 0 0 0-36.584727-36.491636H129.676102A36.631273 36.631273 0 0 0 93.091375-44.962909V660.014545a36.770909 36.770909 0 0 0 36.584727 37.003637H230.86592v20.340363c0 11.962182 9.914182 21.876364 22.481455 21.876364h118.178909A144.709818 144.709818 0 0 0 511.860829 849.454545zM258.560465 248.180364h123.671273a22.434909 22.434909 0 0 1 22.202182 19.083636l19.595636 88.017455 63.301819-234.542546a22.295273 22.295273 0 0 1 26.903272-15.592727 21.597091 21.597091 0 0 1 15.639273 15.592727l49.710545 183.994182 10.984728-40.122182a21.690182 21.690182 0 0 1 20.898909-16.430545h153.972363a22.341818 22.341818 0 0 1 22.202182 22.155636 21.922909 21.922909 0 0 1-22.202182 21.876364h-136.704l-27.973818 103.191272a21.643636 21.643636 0 0 1-15.453091 15.639273 22.388364 22.388364 0 0 1-27.461818-15.639273l-49.338182-183.947636-64.605091 241.291636a22.155636 22.155636 0 0 1-42.868363-0.791272l-36.305455-159.744h-106.123636a21.876364 21.876364 0 0 1-22.528-21.876364m370.688 468.898909a104.913455 104.913455 0 0 1-23.784727 36.491636 99.467636 99.467636 0 0 1-141.963637 0c-10.705455-10.426182-18.804364-22.946909-23.505454-36.491636h189.253818z m186.135273-115.712v-20.340364c0-11.962182-9.960727-21.876364-22.248728-21.876363H253.347375a22.155636 22.155636 0 0 0-22.481455 21.876363v20.340364H166.540102v-631.482182h690.641454V623.522909h-64.279272z m-281.041455 71.68H275.084102v-69.818182h473.925818v69.818182H511.860829z"  horiz-adv-x="1024" />

    


  </font>
</defs>
</svg>
